<svg width="297" height="146" viewBox="0 0 297 146" fill="none" xmlns="http://www.w3.org/2000/svg">
<circle cx="137" cy="47" r="11" fill="white"/>
<path d="M39.8645 127.792C32.9525 127.792 26.8512 126.555 21.5605 124.08C16.2698 121.605 12.1312 118.064 9.1445 113.456C6.15783 108.848 4.6645 103.301 4.6645 96.816V93.232H21.3045V96.816C21.3045 102.192 22.9685 106.245 26.2965 108.976C29.6245 111.621 34.1472 112.944 39.8645 112.944C45.6672 112.944 49.9765 111.792 52.7925 109.488C55.6938 107.184 57.1445 104.24 57.1445 100.656C57.1445 98.1813 56.4192 96.176 54.9685 94.64C53.6032 93.104 51.5552 91.8667 48.8245 90.928C46.1792 89.904 42.9365 88.9653 39.0965 88.112L36.1525 87.472C30.0085 86.1067 24.7178 84.4 20.2805 82.352C15.9285 80.2187 12.5578 77.4453 10.1685 74.032C7.8645 70.6187 6.7125 66.1813 6.7125 60.72C6.7125 55.2587 7.9925 50.608 10.5525 46.768C13.1978 42.8427 16.8672 39.856 21.5605 37.808C26.3392 35.6747 31.9285 34.608 38.3285 34.608C44.7285 34.608 50.4032 35.7173 55.3525 37.936C60.3872 40.0693 64.3125 43.312 67.1285 47.664C70.0298 51.9307 71.4805 57.3067 71.4805 63.792V67.632H54.8405V63.792C54.8405 60.3787 54.1578 57.648 52.7925 55.6C51.5125 53.4667 49.6352 51.9307 47.1605 50.992C44.6858 49.968 41.7418 49.456 38.3285 49.456C33.2085 49.456 29.4112 50.4373 26.9365 52.4C24.5472 54.2773 23.3525 56.88 23.3525 60.208C23.3525 62.4267 23.9072 64.304 25.0165 65.84C26.2112 67.376 27.9605 68.656 30.2645 69.68C32.5685 70.704 35.5125 71.6 39.0965 72.368L42.0405 73.008C48.4405 74.3733 53.9872 76.1227 58.6805 78.256C63.4592 80.3893 67.1712 83.2053 69.8165 86.704C72.4618 90.2027 73.7845 94.6827 73.7845 100.144C73.7845 105.605 72.3765 110.427 69.5605 114.608C66.8298 118.704 62.9045 121.947 57.7845 124.336C52.7498 126.64 46.7765 127.792 39.8645 127.792ZM86.8975 126V36.4H103.026V70.32H105.33C106.012 68.9547 107.079 67.5893 108.53 66.224C109.98 64.8587 111.9 63.7493 114.29 62.896C116.764 61.9573 119.879 61.488 123.634 61.488C128.583 61.488 132.892 62.64 136.562 64.944C140.316 67.1627 143.218 70.2773 145.266 74.288C147.314 78.2133 148.338 82.8213 148.338 88.112V126H132.21V89.392C132.21 84.6133 131.015 81.0293 128.626 78.64C126.322 76.2507 122.994 75.056 118.642 75.056C113.692 75.056 109.852 76.72 107.122 80.048C104.391 83.2907 103.026 87.856 103.026 93.744V126H86.8975ZM177.335 126L157.111 62.512H174.263L188.983 114.224H191.287L206.007 62.512H223.159L202.935 126H177.335ZM252.36 127.792C247.837 127.792 243.784 127.024 240.2 125.488C236.616 123.867 233.757 121.563 231.624 118.576C229.576 115.504 228.552 111.792 228.552 107.44C228.552 103.088 229.576 99.4613 231.624 96.56C233.757 93.5733 236.658 91.3547 240.328 89.904C244.082 88.368 248.349 87.6 253.128 87.6H270.536V84.016C270.536 81.0293 269.597 78.5973 267.72 76.72C265.842 74.7573 262.856 73.776 258.76 73.776C254.749 73.776 251.762 74.7147 249.8 76.592C247.837 78.384 246.557 80.7307 245.96 83.632L231.112 78.64C232.136 75.3973 233.757 72.4533 235.976 69.808C238.28 67.0773 241.309 64.9013 245.064 63.28C248.904 61.5733 253.554 60.72 259.016 60.72C267.378 60.72 273.992 62.8107 278.856 66.992C283.72 71.1733 286.152 77.232 286.152 85.168V108.848C286.152 111.408 287.346 112.688 289.736 112.688H294.856V126H284.104C280.946 126 278.344 125.232 276.296 123.696C274.248 122.16 273.224 120.112 273.224 117.552V117.424H270.792C270.45 118.448 269.682 119.813 268.488 121.52C267.293 123.141 265.416 124.592 262.856 125.872C260.296 127.152 256.797 127.792 252.36 127.792ZM255.176 114.736C259.698 114.736 263.368 113.499 266.184 111.024C269.085 108.464 270.536 105.093 270.536 100.912V99.632H254.28C251.293 99.632 248.946 100.272 247.24 101.552C245.533 102.832 244.68 104.624 244.68 106.928C244.68 109.232 245.576 111.109 247.368 112.56C249.16 114.011 251.762 114.736 255.176 114.736Z" fill="white"/>
</svg>
