<svg width="298" height="163" viewBox="0 0 298 163" fill="none" xmlns="http://www.w3.org/2000/svg">
<circle cx="137" cy="47" r="11" fill="#3737D6"/>
<path d="M39.552 127.792C32.64 127.792 26.5387 126.555 21.248 124.08C15.9573 121.605 11.8187 118.064 8.832 113.456C5.84533 108.848 4.352 103.301 4.352 96.816V93.232H20.992V96.816C20.992 102.192 22.656 106.245 25.984 108.976C29.312 111.621 33.8347 112.944 39.552 112.944C45.3547 112.944 49.664 111.792 52.48 109.488C55.3813 107.184 56.832 104.24 56.832 100.656C56.832 98.1813 56.1067 96.176 54.656 94.64C53.2907 93.104 51.2427 91.8667 48.512 90.928C45.8667 89.904 42.624 88.9653 38.784 88.112L35.84 87.472C29.696 86.1067 24.4053 84.4 19.968 82.352C15.616 80.2187 12.2453 77.4453 9.856 74.032C7.552 70.6187 6.4 66.1813 6.4 60.72C6.4 55.2587 7.68 50.608 10.24 46.768C12.8853 42.8427 16.5547 39.856 21.248 37.808C26.0267 35.6747 31.616 34.608 38.016 34.608C44.416 34.608 50.0907 35.7173 55.04 37.936C60.0747 40.0693 64 43.312 66.816 47.664C69.7173 51.9307 71.168 57.3067 71.168 63.792V67.632H54.528V63.792C54.528 60.3787 53.8453 57.648 52.48 55.6C51.2 53.4667 49.3227 51.9307 46.848 50.992C44.3733 49.968 41.4293 49.456 38.016 49.456C32.896 49.456 29.0987 50.4373 26.624 52.4C24.2347 54.2773 23.04 56.88 23.04 60.208C23.04 62.4267 23.5947 64.304 24.704 65.84C25.8987 67.376 27.648 68.656 29.952 69.68C32.256 70.704 35.2 71.6 38.784 72.368L41.728 73.008C48.128 74.3733 53.6747 76.1227 58.368 78.256C63.1467 80.3893 66.8587 83.2053 69.504 86.704C72.1493 90.2027 73.472 94.6827 73.472 100.144C73.472 105.605 72.064 110.427 69.248 114.608C66.5173 118.704 62.592 121.947 57.472 124.336C52.4373 126.64 46.464 127.792 39.552 127.792ZM86.585 126V36.4H102.713V70.32H105.017C105.7 68.9547 106.766 67.5893 108.217 66.224C109.668 64.8587 111.588 63.7493 113.977 62.896C116.452 61.9573 119.566 61.488 123.321 61.488C128.27 61.488 132.58 62.64 136.249 64.944C140.004 67.1627 142.905 70.2773 144.953 74.288C147.001 78.2133 148.025 82.8213 148.025 88.112V126H131.897V89.392C131.897 84.6133 130.702 81.0293 128.313 78.64C126.009 76.2507 122.681 75.056 118.329 75.056C113.38 75.056 109.54 76.72 106.809 80.048C104.078 83.2907 102.713 87.856 102.713 93.744V126H86.585ZM177.022 126L156.798 62.512H173.95L188.67 114.224H190.974L205.694 62.512H222.846L202.622 126H177.022ZM252.047 127.792C247.524 127.792 243.471 127.024 239.887 125.488C236.303 123.867 233.444 121.563 231.311 118.576C229.263 115.504 228.239 111.792 228.239 107.44C228.239 103.088 229.263 99.4613 231.311 96.56C233.444 93.5733 236.346 91.3547 240.015 89.904C243.77 88.368 248.036 87.6 252.815 87.6H270.223V84.016C270.223 81.0293 269.284 78.5973 267.407 76.72C265.53 74.7573 262.543 73.776 258.447 73.776C254.436 73.776 251.45 74.7147 249.487 76.592C247.524 78.384 246.244 80.7307 245.647 83.632L230.799 78.64C231.823 75.3973 233.444 72.4533 235.663 69.808C237.967 67.0773 240.996 64.9013 244.751 63.28C248.591 61.5733 253.242 60.72 258.703 60.72C267.066 60.72 273.679 62.8107 278.543 66.992C283.407 71.1733 285.839 77.232 285.839 85.168V108.848C285.839 111.408 287.034 112.688 289.423 112.688H294.543V126H283.791C280.634 126 278.031 125.232 275.983 123.696C273.935 122.16 272.911 120.112 272.911 117.552V117.424H270.479C270.138 118.448 269.37 119.813 268.175 121.52C266.98 123.141 265.103 124.592 262.543 125.872C259.983 127.152 256.484 127.792 252.047 127.792ZM254.863 114.736C259.386 114.736 263.055 113.499 265.871 111.024C268.772 108.464 270.223 105.093 270.223 100.912V99.632H253.967C250.98 99.632 248.634 100.272 246.927 101.552C245.22 102.832 244.367 104.624 244.367 106.928C244.367 109.232 245.263 111.109 247.055 112.56C248.847 114.011 251.45 114.736 254.863 114.736Z" fill="#3737D6"/>
</svg>
